Patient4_TMGait_0pt4_03_right_31_GRF.mot
version=1
nRows=45
nColumns=19
inDegrees=no
endheader
time	F1x	F1y	F1z	M1x	M1y	M1z	F2x	F2y	F2z	M2x	M2y	M2z	EC1x	EC1y	EC1z	EC2x	EC2y	EC2z
40.23	15.8801	739.0649	55.6358	-229.4177	-54.8973	793.0865	0.33725	-24.0893	1.0616	-3.8964	-1.4602	-26.5315	-0.0592	0.0182	-0.0073	-0.0462	0.0165	0.9585
40.2432	14.0044	732.9918	58.2806	-227.4048	-56.9329	783.7441	-0.044692	-13.2721	0.68588	-1.6266	-0.82972	-14.3982	-0.0592	0.0182	-0.0073	-0.0462	0.0165	0.9585
40.2564	12.7569	728.448	60.3336	-225.8551	-58.255	775.7864	-0.35158	-4.0579	0.34166	0.31767	-0.28076	-4.0565	-0.0592	0.0182	-0.0073	-0.0462	0.0165	0.9585
40.2696	12.2212	726.2695	61.7417	-225.0424	-58.8328	770.2031	-0.58851	3.023	0.056753	1.8225	0.1606	3.8983	-0.0592	0.0182	-0.0073	-0.0462	0.0165	0.9585
40.2829	12.33	726.8611	62.5841	-225.0997	-58.7779	767.4784	-0.74839	7.9753	-0.15811	2.8858	0.48991	9.4532	-0.0592	0.0182	-0.0073	-0.0462	0.0165	0.9585
40.2961	12.9566	730.1981	63.0113	-226.0192	-58.2731	767.6127	-0.86512	11.0787	-0.31488	3.5614	0.73425	12.9251	-0.0592	0.0182	-0.0073	-0.0462	0.0165	0.9585
40.3093	13.9867	735.8831	63.1739	-227.6726	-57.4864	770.1895	-0.9727	12.7279	-0.4194	3.9252	0.91357	14.7624	-0.0592	0.0182	-0.0073	-0.0462	0.0165	0.9585
40.3225	15.3428	743.2799	63.1881	-229.8566	-56.5419	774.5359	-1.0744	13.3003	-0.49409	4.0458	1.0548	15.3789	-0.0592	0.0182	-0.0073	-0.0462	0.0165	0.9585
40.3357	16.9789	751.6411	63.1382	-232.3346	-55.5174	779.8512	-1.2098	13.105	-0.54889	3.9747	1.1811	15.126	-0.0592	0.0182	-0.0073	-0.0462	0.0165	0.9585
40.3489	18.8891	760.2234	63.0703	-234.8725	-54.4459	785.3519	-1.3711	12.3321	-0.60056	3.7347	1.3111	14.2002	-0.0592	0.0182	-0.0073	-0.0462	0.0165	0.9585
40.3621	21.0652	768.3269	63.0106	-237.2502	-53.3431	790.3302	-1.5604	11.1097	-0.65312	3.3346	1.4507	12.7484	-0.0592	0.0182	-0.0073	-0.0462	0.0165	0.9585
40.3754	23.4953	775.3256	62.9692	-239.2695	-52.2214	794.168	-1.7433	9.4669	-0.7066	2.7626	1.5854	10.7981	-0.0592	0.0182	-0.0073	-0.0462	0.0165	0.9585
40.3886	26.1294	780.6778	62.932	-240.7571	-51.077	796.3436	-1.8709	7.4071	-0.74576	2.0082	1.6749	8.3473	-0.0592	0.0182	-0.0073	-0.0462	0.0165	0.9585
40.4018	28.9202	783.8656	62.881	-241.5436	-49.9024	796.3688	-1.8575	4.9879	-0.75356	1.0886	1.6633	5.4601	-0.0592	0.0182	-0.0073	-0.0462	0.0165	0.9585
40.415	31.7617	784.3341	62.7975	-241.4414	-48.7063	793.7515	-1.5653	2.3614	-0.69789	0.069388	1.4592	2.3112	-0.0592	0.0182	-0.0073	-0.0462	0.0165	0.9585
40.4282	34.5363	781.5599	62.7049	-240.2682	-47.5408	788.0326	-0.85379	-0.11623	-0.53517	-0.90018	0.95184	-0.66225	-0.0592	0.0182	-0.0073	-0.0462	0.0165	0.9585
40.4414	37.1402	775.2944	62.6385	-237.926	-46.4717	779.035	0.47839	-1.7975	-0.21507	-1.5518	0.0059174	-2.6826	-0.0592	0.0182	-0.0073	-0.0462	0.0165	0.9585
40.4546	39.4968	765.7272	62.679	-234.4539	-45.6085	767.0287	2.6046	-1.6344	0.31327	-1.4587	-1.5023	-2.4837	-0.0592	0.0182	-0.0073	-0.0462	0.0165	0.9585
40.4679	41.5862	753.3957	62.8972	-230.0055	-45.0453	752.6085	5.6444	1.8457	1.0953	-0.0194	-3.6584	1.702	-0.0592	0.0182	-0.0073	-0.0462	0.0165	0.9585
40.4811	43.376	738.9687	63.3261	-224.7843	-44.8418	736.4984	9.5937	10.5597	2.1384	3.5428	-6.4481	12.1758	-0.0592	0.0182	-0.0073	-0.0462	0.0165	0.9585
40.4943	44.8778	722.9761	63.8971	-218.9654	-44.9456	719.2522	14.1997	26.7213	3.3983	10.1202	-9.6966	31.601	-0.0592	0.0182	-0.0073	-0.0462	0.0165	0.9585
40.5075	46.0474	705.4935	64.456	-212.5974	-45.225	700.9814	18.8223	52.469	4.7319	20.5748	-12.9649	62.5484	-0.0592	0.0182	-0.0073	-0.0462	0.0165	0.9585
40.5207	46.7997	685.9229	64.7344	-205.5407	-45.4497	681.1173	22.2584	89.3019	5.8607	35.4996	-15.4311	106.8252	-0.0592	0.0182	-0.0073	-0.0462	0.0165	0.9585
40.5339	46.9718	663.064	64.362	-197.4905	-45.3057	658.4895	22.6256	137.1115	6.3082	54.828	-15.7681	164.3001	-0.0592	0.0182	-0.0073	-0.0462	0.0165	0.9585
40.5471	46.3838	635.4887	62.9152	-188.0925	-44.4296	631.6771	17.9524	193.5431	5.336	77.5571	-12.3346	232.2195	-0.0592	0.0182	-0.0073	-0.0462	0.0165	0.9585
40.5604	44.9395	602.105	60.0346	-177.1065	-42.4896	599.5159	8.2793	254.4768	2.2508	101.9335	-4.358	305.7525	-0.0592	0.0182	-0.0073	-0.0462	0.0165	0.9585
40.5736	42.6913	562.6174	55.6038	-164.5271	-39.3364	561.5553	-4.1506	314.875	-3.0735	125.8891	7.3313	378.7092	-0.0592	0.0182	-0.0073	-0.0462	0.0165	0.9585
40.5868	39.8398	517.4894	49.8221	-150.5542	-35.0695	518.0258	-16.8917	371.4927	-10.1999	148.1042	21.2139	446.9323	-0.0592	0.0182	-0.0073	-0.0462	0.0165	0.9585
40.6	36.5569	467.5712	43.1386	-135.4624	-30.0332	469.5651	-28.4768	423.5286	-18.4624	168.2791	35.8931	509.2821	-0.0592	0.0182	-0.0073	-0.0462	0.0165	0.9585
40.6132	32.9324	413.8851	36.1115	-119.5329	-24.707	417.0392	-38.1251	471.3055	-27.0304	186.6119	50.0757	566.08	-0.0592	0.0182	-0.0073	-0.0462	0.0165	0.9585
40.6264	28.9043	357.6446	29.2812	-103.0648	-19.6041	361.5985	-45.5439	515.4136	-35.1685	203.4314	62.7689	618.0035	-0.0592	0.0182	-0.0073	-0.0462	0.0165	0.9585
40.6396	24.3719	300.4401	22.9859	-86.4552	-15.0727	304.8388	-50.6315	556.5081	-42.3137	219.0851	73.2823	665.766	-0.0592	0.0182	-0.0073	-0.0462	0.0165	0.9585
40.6529	19.3199	244.2442	17.4572	-70.2156	-11.3439	248.7683	-53.4482	595.2328	-48.3312	233.8832	81.4859	710.0629	-0.0592	0.0182	-0.0073	-0.0462	0.0165	0.9585
40.6661	13.8791	191.3075	12.7792	-54.9503	-8.4794	195.6974	-54.2616	631.9944	-53.3409	248.0091	87.6428	751.3856	-0.0592	0.0182	-0.0073	-0.0462	0.0165	0.9585
40.6793	8.3782	143.768	9.0081	-41.2487	-6.456	147.8238	-53.4898	666.5938	-57.6061	261.3877	92.2353	789.5904	-0.0592	0.0182	-0.0073	-0.0462	0.0165	0.9585
40.6925	3.3053	103.1877	6.0953	-29.5535	-5.1071	106.7623	-51.6704	698.2326	-61.363	273.6944	95.7564	823.875	-0.0592	0.0182	-0.0073	-0.0462	0.0165	0.9585
40.7057	-0.88129	70.2228	3.9392	-20.0561	-4.2167	73.2225	-49.3375	725.9144	-64.6902	284.5305	98.5119	853.208	-0.0592	0.0182	-0.0073	-0.0462	0.0165	0.9585
40.7189	-3.8899	44.6974	2.3885	-12.7099	-3.5633	47.09	-46.8542	748.9056	-67.5062	293.604	100.5569	876.8426	-0.0592	0.0182	-0.0073	-0.0462	0.0165	0.9585
40.7321	-5.604	25.8714	1.3098	-7.3019	-2.9906	27.6866	-44.3663	766.8038	-69.6331	300.7555	101.7529	894.3899	-0.0592	0.0182	-0.0073	-0.0462	0.0165	0.9585
40.7454	-6.0459	12.7029	0.57908	-3.5299	-2.3908	13.9959	-41.9108	779.399	-70.9849	305.8931	102.0128	905.6716	-0.0592	0.0182	-0.0073	-0.0462	0.0165	0.9585
40.7586	-5.4711	4.1228	0.1003	-1.0824	-1.7495	4.9717	-39.494	786.6523	-71.576	308.986	101.353	910.6994	-0.0592	0.0182	-0.0073	-0.0462	0.0165	0.9585
40.7718	-4.3614	-0.85341	-0.17003	0.32809	-1.161	-0.35722	-37.1293	788.8186	-71.5094	310.1097	99.8976	909.825	-0.0592	0.0182	-0.0073	-0.0462	0.0165	0.9585
40.785	-3.1144	-3.1937	-0.28453	0.98114	-0.68648	-2.9577	-34.849	786.5306	-70.8801	309.4923	97.7845	903.8283	-0.0592	0.0182	-0.0073	-0.0462	0.0165	0.9585
40.7982	-1.9792	-3.7897	-0.29146	1.1332	-0.34468	-3.7162	-32.7045	780.8597	-69.8048	307.5403	95.1866	893.99	-0.0592	0.0182	-0.0073	-0.0462	0.0165	0.9585
40.8114	-1.0534	-3.3641	-0.23628	0.99084	-0.12199	-3.3702	-30.749	773.2659	-68.3952	304.8197	92.2743	882.0137	-0.0592	0.0182	-0.0073	-0.0462	0.0165	0.9585
